<svg id="b759170a-51c3-4e2f-999d-77dec9fd6d11" xmlns="http://www.w3.org/2000/svg" xmlns:xlink="http://www.w3.org/1999/xlink" viewBox="0 0 1140.57 787.27"><defs><style>.cls-1,.cls-4{fill:#01c566;}.cls-1,.cls-21,.cls-7{opacity:0.1;}.cls-1,.cls-12,.cls-15,.cls-6,.cls-7{isolation:isolate;}.cls-2{fill:#2e3549;}.cls-3{fill:#2271ff;}.cls-5{fill:#444053;}.cls-6,.cls-9{fill:#fff;}.cls-6{opacity:0.2;}.cls-8{fill:#e3e8f4;}.cls-10{fill:#afc0e0;}.cls-11{fill:none;stroke:#535461;stroke-miterlimit:10;stroke-width:2px;}.cls-12{opacity:0.25;}.cls-13{fill:url(#linear-gradient);}.cls-14{fill:#00aa58;}.cls-15{opacity:0.05;}.cls-16{fill:#007239;}.cls-17{fill:#ee8e9e;}.cls-18{fill:#30374e;}.cls-19{fill:#2d2a02;}.cls-20{fill:#565387;}</style><linearGradient id="linear-gradient" x1="852.39" y1="-45.93" x2="852.39" y2="451.66" gradientTransform="matrix(1, 0, 0, -1, -29.72, 733.64)" gradientUnits="userSpaceOnUse"><stop offset="0" stop-color="gray" stop-opacity="0.25"/><stop offset="0.54" stop-color="gray" stop-opacity="0.12"/><stop offset="1" stop-color="gray" stop-opacity="0.1"/></linearGradient></defs><path class="cls-1" d="M8.76,414.46c20.16-32.93,65.75-27.19,98.08-10S171.43,447.31,207,442.38c30-4.16,54.6-30.32,67.89-60.5s17.19-64.21,20.93-97.54q7.05-62.8,14.09-125.7c1.72-15.33,3.75-31.51,12.37-43.64,11.39-16,32.27-20.92,50.13-16.11s33.09,17.71,46.12,32.1c41.74,46.08,65.39,108.37,101.88,159.65,7.43,10.44,15.82,20.76,26.92,25.8,16,7.25,34.37,2.12,50-5.95,51-26.29,85.26-79.94,118.93-130,16.38-24.33,36.35-50.35,63.6-53,28.67-2.85,53.56,21.58,70.41,47.45,54.08,83.24,65.67,196.88,131,269.48,8.11,9,17.06,17.32,27.37,22.91a70.83,70.83,0,0,0,10.6,4.65c57,19.73,76,98.93,33.84,145.89-.91,1-1.84,2-2.78,3-6.26,6.61-13.35,12.86-21.81,14.83-7.87,1.82-16-.28-23.8-2.55C954.84,618.6,905.58,596.36,854,597.44c-50.16,1-97.74,24.17-147.34,32.51-33.35,5.61-67.28,4.49-101,3.28q-168.47-6.06-336.85-14.1c-55.72-2.56-111.46-5-167.17-7.85-42.92-2.23-70.26-7.14-75.24-56.95C22.07,510.71-17.09,456.7,8.76,414.46Z" transform="translate(0)"/><ellipse class="cls-2" cx="789.9" cy="749.54" rx="269.99" ry="37.73"/><path class="cls-3" d="M148.74,586.77s13.2-3,21.85,5.87c0,0-5.56,5-18.64-.54Z" transform="translate(0)"/><path class="cls-3" d="M147.28,586.64s-7.82,11.08-2.86,22.45c0,0,6.76-3.25,6.57-17.45Z" transform="translate(0)"/><path class="cls-3" d="M138.48,569.94s4.69-10.15,27,2.12c0,0-2.4,6.78-11.88,6.88S141.28,574.93,138.48,569.94Z" transform="translate(0)"/><path class="cls-4" d="M137.06,569.32s-11.17-.52-10.54,24.92c0,0,7.13,1,11.58-7.38S140.19,574.15,137.06,569.32Z" transform="translate(0)"/><path class="cls-3" d="M129.28,549.52s5-17.68,28.47-6.88c0,0-4.1,16.19-25.8,12.64Z" transform="translate(0)"/><path class="cls-4" d="M120.57,524.18s10.58-18.24,32.49-3.44c0,0-6.19,16.87-30.29,9.55Z" transform="translate(0)"/><path class="cls-4" d="M116.43,499.78s12.63-16.95,34.36-2.31c0,0-12.06,14.94-34.09,6.4Z" transform="translate(0)"/><path class="cls-4" d="M112.69,476.06s12.76-17.66,33.59-3.15c0,0-14.68,15.83-33.33,7.07Z" transform="translate(0)"/><path class="cls-4" d="M112.51,454.8s13.15-22.53,32.65-9.17c0,0-14.42,19.57-32.37,13.26Z" transform="translate(0)"/><path class="cls-4" d="M114.28,429.82s14-22.4,33.09-7.18c0,0-17.1,19.75-32.87,11.15Z" transform="translate(0)"/><path class="cls-4" d="M117.91,407.36s17-21.31,33.55-14.37c0,0-17.68,22.6-34,19.76Z" transform="translate(0)"/><path class="cls-4" d="M122.91,386s19.54-26,32.37-18.62c0,0-14.31,20.09-33.58,23.35Z" transform="translate(0)"/><path class="cls-4" d="M130.53,361s17.17-21.32,31-17.24c0,0-14.45,21.89-33.1,23.68Z" transform="translate(0)"/><path class="cls-4" d="M137.38,337.71s19.18-20.6,28.31-17.82c0,0-13.35,22.36-28.92,22.15Z" transform="translate(0)"/><path class="cls-4" d="M144.15,316.15s16.09-24.15,25.82-23c0,0-9.31,21.19-25.66,25.33Z" transform="translate(0)"/><path class="cls-4" d="M151.14,287.24s14.39-18.66,22.81-19.18c0,0-10.71,24.34-23.07,25Z" transform="translate(0)"/><path class="cls-4" d="M155.14,268l12.58-37.69s3,33.1-14,44.62Z" transform="translate(0)"/><path class="cls-4" d="M158.53,227.17S159,196.38,157.2,194c0,0,12.47,24.74,2.14,46.71Z" transform="translate(0)"/><path class="cls-4" d="M128.64,549.15s-16.26-8.62-24.77,15.73c0,0,14.5,8.28,27-9.81Z" transform="translate(0)"/><path class="cls-4" d="M120,523.23s-19.72-7.45-27.35,17.88c0,0,15.47,9.15,29.51-11.76Z" transform="translate(0)"/><path class="cls-4" d="M115.64,501.31s-14.79-15.11-34.36,2.33c0,0,13.94,13.19,34.63,1.79Z" transform="translate(0)"/><path class="cls-4" d="M112.22,476.1s-15-15.81-33.71,1.36c0,0,16.66,13.73,34,2.55Z" transform="translate(0)"/><path class="cls-4" d="M112.55,455.4s-11.36-23.47-31.83-11.67c0,0,12.86,20.63,31.24,15.74Z" transform="translate(0)"/><path class="cls-4" d="M115.45,429.64s-11.33-23.9-32.06-11.07c0,0,14.66,21.61,31.34,14.93Z" transform="translate(0)"/><path class="cls-4" d="M120,407.34s-5.64-26.65-23.55-27.87c0,0,5.68,28.13,21.51,32.88Z" transform="translate(0)"/><path class="cls-4" d="M123.37,386s-3.67-32.31-18.46-32.46c0,0,2.15,24.57,17.11,37.15Z" transform="translate(0)"/><path class="cls-4" d="M132,360s-6.21-26.66-20.47-29c0,0,3.5,26,19.53,35.72Z" transform="translate(0)"/><path class="cls-4" d="M139.06,337.79s-2-28.07-10.9-31.62c0,0-3.61,25.78,8.65,35.38Z" transform="translate(0)"/><path class="cls-4" d="M144.79,315.8s-3.15-28.85-12.31-32.32c0,0-1.5,23.09,11.1,34.3Z" transform="translate(0)"/><path class="cls-4" d="M152.54,289.46s-1.64-23.51-8.35-28.61c0,0-4.58,26.19,5.35,33.56Z" transform="translate(0)"/><path class="cls-4" d="M154.28,266.92l-8.8-38.74s-6.23,32.64,9.57,45.78Z" transform="translate(0)"/><path class="cls-4" d="M152.91,227.92s-17.63-25.28-17.49-28.22c0,0,3.54,27.48,24.41,39.89Z" transform="translate(0)"/><path class="cls-4" d="M154.28,220s-17.46-36.39-24.43-39c0,0,22.09,9.43,25.61,37.8Z" transform="translate(0)"/><path class="cls-5" d="M150.82,293.25l-1-.25c9.85-42,11.24-68.48,3.9-74.56l.68-.82C162.14,224.06,160.92,250.22,150.82,293.25Z" transform="translate(0)"/><path class="cls-5" d="M122.54,391.91l-1.55-.43c1.09-3.86,2.27-7.79,3.53-11.66,11-33.72,20.14-65,25.75-88.94l1.27-.75c-5.62,24-14.51,56.43-25.49,90.18C124.8,384.17,123.62,388.07,122.54,391.91Z" transform="translate(0)"/><path class="cls-5" d="M169.59,616.31c-.22-.21-22.22-21.87-39.12-60.24a232.57,232.57,0,0,1-18.61-70.77c-3-30.53,1.1-65.13,10-96.9l1.28,1.32c-20,71.31-6.19,130.34,9.23,165.4,16.73,38,38.48,59.45,38.7,59.66Z" transform="translate(0)"/><path class="cls-3" d="M193.81,502.1s8-1.83,13.22,3.55c0,0-3.37,3-11.27-.33Z" transform="translate(0)"/><path class="cls-3" d="M192.94,502s-4.72,6.7-1.72,13.57c0,0,4.08-2,4-10.55Z" transform="translate(0)"/><path class="cls-3" d="M187.62,491.92s2.83-6.13,16.3,1.29c0,0-1.45,4.09-7.18,4.15S189.33,494.94,187.62,491.92Z" transform="translate(0)"/><path class="cls-3" d="M186.76,491.55s-6.76-.31-6.38,15.06c0,0,4.31.6,7-4.46S188.65,494.47,186.76,491.55Z" transform="translate(0)"/><path class="cls-3" d="M182,479.58s3.07-10.69,17.23-4.18c0,0-2.47,9.79-15.59,7.64Z" transform="translate(0)"/><path class="cls-3" d="M176.79,464.26s6.39-11,19.64-2.08c0,0-3.75,10.2-18.31,5.77Z" transform="translate(0)"/><path class="cls-4" d="M174.28,449.51s7.64-10.25,20.77-1.4c0,0-7.28,9-20.6,3.87Z" transform="translate(0)"/><path class="cls-4" d="M172,435.17s7.72-10.68,20.31-1.9c0,0-8.87,9.57-20.15,4.27Z" transform="translate(0)"/><path class="cls-4" d="M171.92,422.31s8-13.61,19.73-5.54c0,0-8.72,11.83-19.57,8Z" transform="translate(0)"/><path class="cls-4" d="M173,407.22s8.49-13.55,20-4.38c0,0-10.34,11.94-19.88,6.74Z" transform="translate(0)"/><path class="cls-4" d="M175.18,393.64s10.27-12.88,20.28-8.68c0,0-10.69,13.66-20.53,11.94Z" transform="translate(0)"/><path class="cls-4" d="M178.2,380.7S190,365,197.77,369.44c0,0-8.65,12.15-20.3,14.12Z" transform="translate(0)"/><path class="cls-4" d="M182.81,365.64s10.38-12.89,18.76-10.42c0,0-8.73,13.23-20,14.31Z" transform="translate(0)"/><path class="cls-4" d="M187,351.53s11.59-12.45,17.11-10.77c0,0-8.06,13.51-17.48,13.39Z" transform="translate(0)"/><path class="cls-4" d="M191,338.5s9.73-14.6,15.61-13.92c0,0-5.62,12.81-15.51,15.32Z" transform="translate(0)"/><path class="cls-4" d="M195.28,321s8.7-11.28,13.79-11.6c0,0-6.48,14.72-13.95,15.09Z" transform="translate(0)"/><path class="cls-4" d="M197.69,309.4l7.59-22.76s1.8,20-8.49,27Z" transform="translate(0)"/><path class="cls-4" d="M199.74,284.7s.26-18.61-.81-20.05c0,0,7.54,15,1.29,28.24Z" transform="translate(0)"/><path class="cls-3" d="M181.66,479.36s-9.82-5.22-15,9.5c0,0,8.77,5,16.33-5.92Z" transform="translate(0)"/><path class="cls-4" d="M176.45,463.64s-11.93-4.5-16.54,10.81c0,0,9.35,5.53,17.84-7.1Z" transform="translate(0)"/><path class="cls-4" d="M173.8,450.43s-8.93-9.13-20.77,1.4c0,0,8.43,8,20.94,1.08Z" transform="translate(0)"/><path class="cls-4" d="M171.74,435.19s-9.07-9.55-20.38.83c0,0,10.07,8.29,20.54,1.54Z" transform="translate(0)"/><path class="cls-4" d="M171.94,422.64s-6.87-14.19-19.25-7.06c0,0,7.78,12.47,18.89,9.52Z" transform="translate(0)"/><path class="cls-4" d="M173.69,407.09s-6.85-14.45-19.41-6.69c0,0,8.86,13.07,18.95,9Z" transform="translate(0)"/><path class="cls-4" d="M176.43,393.64s-3.41-16.12-14.24-16.85c0,0,3.43,17,13,19.87Z" transform="translate(0)"/><path class="cls-4" d="M178.48,380.71s-2.2-19.53-11.2-19.63c0,0,1.3,14.86,10.34,22.47Z" transform="translate(0)"/><path class="cls-4" d="M183.69,365s-3.75-16.12-12.37-17.54c0,0,2.12,15.71,11.81,21.59Z" transform="translate(0)"/><path class="cls-4" d="M188,351.58s-1.23-17-6.58-19.12c0,0-2.19,15.59,5.22,21.39Z" transform="translate(0)"/><path class="cls-4" d="M191.43,338.28s-1.9-17.44-7.44-19.54c0,0-.91,14,6.71,20.74Z" transform="translate(0)"/><path class="cls-4" d="M196.11,322.36s-1-14.21-5-17.3c0,0-2.77,15.84,3.23,20.29Z" transform="translate(0)"/><path class="cls-4" d="M197.19,308.73l-5.32-23.42s-3.77,19.74,5.78,27.68Z" transform="translate(0)"/><path class="cls-4" d="M196.34,285.16s-10.65-15.27-10.57-17.06c0,0,2.13,16.61,14.75,24.11Z" transform="translate(0)"/><path class="cls-4" d="M197.14,280.38s-10.56-22-14.77-23.55c0,0,13.36,5.7,15.48,22.86Z" transform="translate(0)"/><path class="cls-5" d="M195.07,324.64l-.63-.15c6-25.39,6.8-41.4,2.36-45.07l.41-.5C201.92,282.82,201.18,298.64,195.07,324.64Z" transform="translate(0)"/><path class="cls-5" d="M178,384.3,177,384c.66-2.33,1.38-4.7,2.14-7,6.63-20.39,12.17-39.3,15.56-53.77l.77-.46c-3.4,14.5-8.77,34.12-15.41,54.53C179.34,379.64,178.63,382,178,384.3Z" transform="translate(0)"/><path class="cls-5" d="M206.42,520c-.13-.13-13.43-13.22-23.65-36.42a140.78,140.78,0,0,1-11.25-42.78c-1.83-18.46.67-39.38,6.06-58.59l.77.8c-12.09,43.11-3.74,78.8,5.58,100,10.12,23,23.26,35.93,23.4,36.06Z" transform="translate(0)"/><path class="cls-4" d="M236.5,570a38.24,38.24,0,0,0-7.5,2.14c-53.94,21.54-53,162.54-53,162.54H160.08s-5-60.51-26.79-146.84c-19.63-77.67,60.88-147.28,77.23-160.48,1.84-1.47,2.86-2.25,2.86-2.25C294.47,454.87,236.5,570,236.5,570Z" transform="translate(0)"/><path class="cls-6" d="M219.28,427.52c-1.87-.86-3.8-1.68-5.85-2.43l-2.86,2.25c-16.35,13.2-96.86,82.81-77.23,160.48,21.79,86.33,26.74,146.82,26.74,146.82H169s-4.95-60.51-26.79-146.84C122.67,510.49,202.4,441.14,219.28,427.52Z" transform="translate(0)"/><path class="cls-4" d="M504,587.82c-21.84,86.33-26.76,146.82-26.76,146.82H461.37s1-147.36-56.73-163.81a31,31,0,0,0-3.81-.89s-58-115.09,23.12-144.87c0,0,.82.61,2.3,1.8C441.28,438.9,523.89,509.25,504,587.82Z" transform="translate(0)"/><path class="cls-7" d="M236.5,570a38.24,38.24,0,0,0-7.5,2.14,979.38,979.38,0,0,1-18.48-144.76c1.84-1.47,2.86-2.25,2.86-2.25C294.47,454.87,236.5,570,236.5,570Z" transform="translate(0)"/><path class="cls-7" d="M426.28,426.89a901.11,901.11,0,0,1-21.61,144,31,31,0,0,0-3.81-.89s-58-115.09,23.12-144.87C424,425.09,424.77,425.7,426.28,426.89Z" transform="translate(0)"/><path class="cls-8" d="M396.59,591.78q-8.4,33.13-19.69,68c-11.29,34.86-35.72,37.21-122,0,0,0-8.62-24.3-18.1-65.61-20.87-90.83-45.9-263.92,7.43-441.71A661.57,661.57,0,0,1,311.41,0s45.56,52.31,79,152.43S445.13,400.5,396.59,591.78Z" transform="translate(0)"/><circle class="cls-9" cx="318.66" cy="293.6" r="71.63"/><path class="cls-4" d="M369.46,293.64a50.8,50.8,0,1,1-101.59,0v-1.21a50.86,50.86,0,0,1,37-47.72,52.77,52.77,0,0,1,12.24-1.86h1.52a50.79,50.79,0,0,1,50.83,50.77Z" transform="translate(0)"/><path class="cls-4" d="M390.4,152.43c-81.27,38.91-146.22,0-146.22,0A661.76,661.76,0,0,1,311.41,0S357,52.31,390.4,152.43Z" transform="translate(0)"/><path class="cls-10" d="M396.59,593.78q-5.7,22.44-12.7,45.65-3.31,11.07-7,22.32c-3.68,11.25-35.72,37.21-122,0,0,0-2.8-7.89-7-22.32-3.14-10.9-7-25.51-11.13-43.29,0,0,32.12,13.71,77.71,13.71A214.16,214.16,0,0,0,396.59,593.78Z" transform="translate(0)"/><path class="cls-8" d="M383.89,637.43q-3.31,11.07-7,22.32c-3.68,11.25-35.72,37.21-122,0,0,0-2.8-7.89-7-22.32C247.88,637.43,335.82,662.73,383.89,637.43Z" transform="translate(0)"/><path class="cls-6" d="M304.9,244.64l-.11.08-36.9,47.64v1.21a50.65,50.65,0,0,0,5.79,23.57l43.48-74.36Z" transform="translate(0)"/><path class="cls-6" d="M316.68,287.64l-30.22,45.25a51.31,51.31,0,0,1-9.52-10.33l36-38.64Z" transform="translate(0)"/><path class="cls-6" d="M274.2,659.76s-8.62-24.31-18.1-65.61c-20.87-90.84-45.9-263.93,7.43-441.72A664.47,664.47,0,0,1,322.38,14.34c-6.77-9.49-11-14.33-11-14.33a661.78,661.78,0,0,0-67.2,152.42c-53.33,177.79-28.3,350.88-7.43,441.72,9.48,41.3,18.1,65.61,18.1,65.61,34.09,14.69,60.28,17.77,79.5,16.13C317.93,674.64,298,670,274.2,659.76Z" transform="translate(0)"/><path class="cls-11" d="M937,728.93s46.74-58.16,43.64-116.41a113.08,113.08,0,0,1,18.54-69.06,190.62,190.62,0,0,1,22-27" transform="translate(0)"/><path class="cls-4" d="M1019.39,479.78c-3.34,8.11,1.66,37.68,1.66,37.68s24.37-17.48,27.71-25.59a15.88,15.88,0,0,0-29.37-12.09Z" transform="translate(0)"/><path class="cls-4" d="M976.61,514.72c1.61,8.62,21.88,30.72,21.88,30.72s11-27.91,9.35-36.54a15.88,15.88,0,0,0-31.23,5.82Z" transform="translate(0)"/><path class="cls-3" d="M936.12,655.57c4.53,7.51,31.28,21.07,31.28,21.07s.44-30-4.09-37.5a15.88,15.88,0,1,0-27.19,16.43Z" transform="translate(0)"/><path class="cls-4" d="M1028.68,559.71c-8.14,3.25-37.66-2.05-37.66-2.05s17.72-24.19,25.87-27.45a15.88,15.88,0,1,1,11.79,29.5Z" transform="translate(0)"/><path class="cls-4" d="M1016.1,634c-8.74.67-35.32-13.22-35.32-13.22s24.14-17.79,32.89-18.46A15.89,15.89,0,0,1,1016.1,634Z" transform="translate(0)"/><path class="cls-3" d="M994,704.48c-8.51,2.14-37.05-7.06-37.05-7.06s20.79-21.61,29.3-23.74a15.88,15.88,0,0,1,7.75,30.8Z" transform="translate(0)"/><path class="cls-12" d="M1019.39,479.78c-3.34,8.11,1.66,37.68,1.66,37.68s24.37-17.48,27.71-25.59a15.88,15.88,0,0,0-29.37-12.09Z" transform="translate(0)"/><path class="cls-12" d="M976.61,513.51c1.61,8.62,21.88,30.72,21.88,30.72s11-27.91,9.35-36.54a15.88,15.88,0,0,0-31.23,5.82Z" transform="translate(0)"/><path class="cls-12" d="M936.12,655.57c4.53,7.51,31.28,21.07,31.28,21.07s.44-30-4.09-37.5a15.88,15.88,0,1,0-27.19,16.43Z" transform="translate(0)"/><path class="cls-12" d="M1028.68,559.71c-8.14,3.25-37.66-2.05-37.66-2.05s17.72-24.19,25.87-27.45a15.88,15.88,0,1,1,11.79,29.5Z" transform="translate(0)"/><path class="cls-12" d="M1018.5,634c-8.74.67-35.32-13.22-35.32-13.22s24.14-17.79,32.89-18.46A15.89,15.89,0,0,1,1018.5,634Z" transform="translate(0)"/><path class="cls-12" d="M994,704.48c-8.51,2.14-37.05-7.06-37.05-7.06s20.79-21.61,29.3-23.74a15.88,15.88,0,0,1,7.75,30.8Z" transform="translate(0)"/><path class="cls-11" d="M937.4,726.5s66.3-34.24,87.07-88.74a113,113,0,0,1,44.94-55.63,189.77,189.77,0,0,1,31-15.76" transform="translate(0)"/><path class="cls-4" d="M1113.7,532.1c-6.34,6.07-13.75,35.13-13.75,35.13s29.36-6.11,35.7-12.17a15.9,15.9,0,1,0-22-23h0Z" transform="translate(0)"/><path class="cls-4" d="M1060.44,546.71c-2,8.54,7.55,37,7.55,37s21.29-21.07,23.35-29.66a15.88,15.88,0,0,0-30.9-7.34Z" transform="translate(0)"/><path class="cls-4" d="M1001.22,604.93c2.56,8.39,25.18,28.09,25.18,28.09s7.77-29,5.21-37.35a15.88,15.88,0,0,0-30.39,9.26Z" transform="translate(0)"/><path class="cls-3" d="M966.34,659.07c1.1,8.71,20.06,31.94,20.06,31.94s12.56-27.23,11.45-35.94a15.88,15.88,0,1,0-31.51,4Z" transform="translate(0)"/><path class="cls-4" d="M1089.81,608.94c-8.77-.32-33.6-17.13-33.6-17.13s26-14.93,34.77-14.61a15.88,15.88,0,1,1-1.17,31.74Z" transform="translate(0)"/><path class="cls-4" d="M1048.21,671.74c-8.27-2.93-26.94-26.4-26.94-26.4s29.29-6.47,37.55-3.54a15.88,15.88,0,1,1-10.61,29.94Z" transform="translate(0)"/><path class="cls-4" d="M999.4,727.23c-8.64-1.49-31-21.47-31-21.47s27.77-11.32,36.41-9.83a15.88,15.88,0,0,1-5.4,31.3h0Z" transform="translate(0)"/><path class="cls-13" d="M1031.67,694.36l-51.39-74.53s-1-18.45-4.32-22.76-.72-13.9-.72-13.9,3.6-5.27.48-5.75-.48-12.23-.48-12.23L975,546.5s2.88-18,.48-22.28a7.06,7.06,0,0,1,.24-7.67s2.88-10.31,0-12.94-2.16-18.7-1.44-31.4-5-19.89-5-21.81-19-20.61-19-22.28-12-8.63-19.21-10.55-10.81-3.35-10.57-4.31-11.29-4.79-11.29-4.79-10.09-.72-13.94-5.76-15.59-6.48-15.93-6.53c-.07-.33-.15-.67-.22-1s-.15-.72-.22-1.08c.91-1.53,1.75-3.09,2.51-4.7.23-.49.45-1,.66-1.46,4.21-.19,8.53-1.09,11.83-3.67a16.11,16.11,0,0,0,5.75-11.49A25.28,25.28,0,0,0,896.79,360c-2.1-4.32-5.19-8.79-4.13-13.47.47-2,1.68-3.8,2.3-5.78,1.17-3.75.09-7.87-1.73-11.35s-4.35-6.54-6.37-9.91a38.72,38.72,0,0,1-5.07-14c-.41-2.6-.57-5.34-1.88-7.63a14.22,14.22,0,0,0-4.21-4.25,42.07,42.07,0,0,0-25.82-7.83c-6.54.23-13.06,2-19.55,1.19-3.91-.48-7.64-1.87-11.42-3-8.06-2.38-17.35-3.36-24.37,1.25S784.73,298.91,780,306c-4.2,6.28-10.36,11.54-13.56,18.18a1.43,1.43,0,0,1,.1-.38,21.5,21.5,0,0,0-1.79,4.84c-1.22,5.22-.2,10.68,1.07,15.89.65,2.69,1.55,5.61,3.88,7.1s5.63,1.16,8.39,1.65c-.1.45-.22.91-.32,1.37a54.89,54.89,0,0,0,38.09,64v1.46a37.8,37.8,0,0,1-.25,4.12h0s-24.15-5-30.64-1.6-19.22,6-21.14,7.9-6.72.48-11,11.75-4.8,22.76-10.33,28-8.4,8.87-8.64,12.71.72,4.79-1.45,6-5.28,6.23-4.32,8.15c0,0,1.2,4.79-2.64,7.18s-3.37,7.19-3.37,7.19-1.44,5.28-4.8,6.47-5.53,9.11-5.53,9.11L700.8,539.64l-21.59-23.9a9.1,9.1,0,0,0-12.85-.66l-10.6,9.56A20.9,20.9,0,0,0,645.15,531a27.29,27.29,0,0,0-5.49,8.18l-5.81,5.22a14.76,14.76,0,0,0-1.49,16.28l13.83,15.29.09.13c-5.23.66-9.85,2.34-13.38,5.45-20.65,18.21-20.9,35-17.77,42.65s29.3,37.15,29.3,37.15,15.21,19.77,37.17,30.29h0l-.17.17c-.43.46-.86,1-1.28,1.5l-.36.46-.33.46-.39.58c-.11.15-.21.31-.31.47s-.28.45-.41.69l-.27.46c-.16.3-.33.61-.49.93l-.16.31c-.2.42-.4.85-.59,1.3-.07.16-.13.33-.2.49-.12.31-.25.63-.37,1s-.15.41-.22.62-.21.62-.31.94-.14.45-.2.67-.2.7-.29,1.06-.11.42-.17.65c-.13.55-.26,1.12-.37,1.72a4.23,4.23,0,0,1-.12.68q-.12.6-.21,1.23c0,.29-.08.58-.12.87s-.1.79-.15,1.19L674,711c0,.44-.08.9-.11,1.36a4.74,4.74,0,0,1,0,.84c0,.76-.08,1.52-.09,2.32-.48,28,1.16,32.11,1.16,32.11s3.39,8.93,12.75,9.57a16.2,16.2,0,0,0,4.11-.22c12.49-2.16,41.79-7.19,52.12-5.27,6.21,1.15,17.71-.55,25.9-2.1l2.15-.41,1.5,4.76,4.75-1.3,4,2.33,2.55,1.46c4.74,16.08,24,10.6,24,10.6l4.52,2.62,46.36,1.2s10,6,16.41,7.88a15.36,15.36,0,0,0,2.33.51,107.12,107.12,0,0,0,12.92.24c3.55-.09,6.3-.24,6.3-.24s-.47-12.59-1.15-26.68c17.72-.74,33.43-1.85,42.94-3.52,24.76-4.35,35.09-26.86,38.89-38.89a114.11,114.11,0,0,1,2.43,14.93A106.18,106.18,0,0,0,984.56,738a43.86,43.86,0,0,0,5.28,9.58c18.26-6.23,7.21-15.57,3.36-19.65s2.65-7.43,2.65-7.43,5-3.35,4.56-6.47-.72-6.47,15.61-6.23S1031.67,694.36,1031.67,694.36ZM778,541.36c.21,1.37,2.49,16.14,4.55,20,.43.82.6,3.73.54,7.89-9.68-.77-19.76-1.18-19.76-1.18a2.34,2.34,0,0,1,.52,1.23l-1.52-.34-2.21-.54L778,541.3Zm-35.32,56.2,16.75,2.66,1.41.22a55.32,55.32,0,0,0-.87,7.91c0,.25.38.55.92.9a22.34,22.34,0,0,0-.33,4c.27,1.33,8.1,4.19,17.08,6.57-.12.48-.24.94-.36,1.37h0c-7.93-4.17-20.43-6.12-21.87-9.22s-44-18-44-18-1.55-.82-4.23-2.12l11.2,2.12,3.08-.31a167.73,167.73,0,0,0,21.22,3.88Z" transform="translate(0)"/><path class="cls-14" d="M960,704.79S953.33,745,919.52,751s-146.66,4.76-146.66,4.76-64.52-9.28-87.85-63.8-38.33-76.19-18.33-77.14,127.85,36.43,134,36.9S965.94,568.84,960,704.79Z" transform="translate(0)"/><path class="cls-15" d="M956,704.79S949.33,745,915.52,751s-146.66,4.76-146.66,4.76-64.52-9.28-87.85-63.8-38.33-76.19-18.33-77.14,127.85,36.43,134,36.9S961.94,568.84,956,704.79Z" transform="translate(0)"/><path class="cls-16" d="M674.35,749.54s3.37,8.88,12.64,9.51a16.32,16.32,0,0,0,4.07-.22c12.38-2.14,41.43-7.14,51.66-5.24,6.16,1.15,17.55-.55,25.66-2.08,5.4-1,9.34-2,9.34-2S768.2,717.85,767,716.9,724.15,691,724.15,691l-33-2.37h-.1s-6.11.41-11.18,6.57c-3.49,4.21-6.48,11.13-6.68,22.47C672.73,745.49,674.35,749.54,674.35,749.54Z" transform="translate(0)"/><path class="cls-15" d="M674.35,749.54s3.37,8.88,12.64,9.51A136,136,0,0,1,678,746l.17-23.09c-1.47-17.29,6.62-28.36,13-34.27h-.1s-17.38,1.18-17.86,29S674.35,749.54,674.35,749.54Z" transform="translate(0)"/><path class="cls-7" d="M817.48,699.07l30.71-24,48.33-47.62s-5.22-.25-13.09-.59c-2,1.25-7.45,5.18-7.65,10-.24,5.82-13.07.4-19.73,3.73s-39.28,45.08-45,44.81-10.23-2.9-12.62,1.15c0,.09-.11.17-.17.26Z" transform="translate(0)"/><path class="cls-7" d="M679.88,695.17c1.09.53,2.19,1,3.32,1.52,23.34,10,52.14,31,54.29,34.76,1.3,2.32,18,12.46,30.89,20.06,5.4-1,9.34-2,9.34-2S768.2,717.85,767,716.9,724.15,691,724.15,691l-33-2.37h-.1S685,689,679.88,695.17Z" transform="translate(0)"/><path class="cls-14" d="M615.12,626.93c3.09,7.62,29,36.91,29,36.91s16.42,21.42,39.76,31.42,52.14,31,54.28,34.76c1.38,2.45,20,13.65,33.08,21.35l2.93,1.71,6.5,3.77,3.44,2s8-6.4,15.91-12.84,15.63-12.75,15.76-13.11c.23-.71,3.32-8.81,2.61-9.28-.37-.25-2-3.55-5-7.37a33.78,33.78,0,0,0-12.13-10c-11-5-15.71-16.38-15.71-16.38s-1-.76-2.63-1.76c-2.82-1.78-7.35-4.34-10.7-4.77-5.25-.66-15-11.37-15-11.37s-6.67-4.29-9.29-9.76c-2.5-5.22-39.42-30.58-42.84-32.92l89.51,57.48L816,700.54l30.71-24,48.34-47.62s-6.5-.32-16-.72c-23.49-1-65.21-2.61-70.48-1.42a40.08,40.08,0,0,1-13.1.85s-11.88.54-19.74-3.61-20.25-6.09-21.68-9.16S710.5,597,710.5,597s-57.37-30.47-77.85-12.37S612,619.32,615.12,626.93Z" transform="translate(0)"/><path class="cls-17" d="M800.1,452.19l7.38,24.52L817,531.94l35,2.38,10.13-16.8,10.15-16.77s6.3-22.32,10.83-43.91c4-19.1,6.62-37.64,2.26-39.65-3.86-1.79-6.4-8.22-8-15.14-.21-.85-.4-1.72-.58-2.59a134.29,134.29,0,0,1-2.32-17.75s-73.33-3.8-63.09,26.43a48.11,48.11,0,0,1,2.76,16.08,37.26,37.26,0,0,1-.25,4.09A34.3,34.3,0,0,1,800.1,452.19Z" transform="translate(0)"/><path class="cls-8" d="M784.86,448.14l2.62,41.66,5.95,35.47,6.67,16.43,5.95,89.88s57.41,6.64,71.37-.12a6.12,6.12,0,0,0,2.53-2c16.86-25.43,11.33-99.19,11.33-99.19l6.43-47.63-4.29-24.72-10.35-1.1-8-.85s-1.8,2.22-4.4,5.65c-7.06,9.32-20,27.65-19.17,35.3,1.18,10.48-1.43,21.19-5.48,22.86s-7.38,4.52-8.09,1.67-1.43-3.57-.72-7.62-3.1-16.43-3.1-16.43-6.42-14.52-6-20.71-.71-13.34-2.62-15-4.52-3.34-2.38-11-9.39-22.45-9.39-22.45Z" transform="translate(0)"/><path class="cls-7" d="M860.69,552.19l2.38,71.19L876.82,631a6.12,6.12,0,0,0,2.53-2c16.87-25.47,11.34-99.22,11.34-99.22l6.43-47.62-4.29-24.71-10.36-1.1c4-19.1,6.62-37.64,2.27-39.65-3.87-1.79-6.41-8.22-8.06-15.14h0l-7.4,50.4s.62,4.54.84,9.22c.17,3.48.11,7-.6,8.87C867.85,474.34,869,482,869,482c-4.29,7.56-6.43,21.57-7.48,35.1C860.15,535.05,860.69,552.19,860.69,552.19Z" transform="translate(0)"/><path class="cls-4" d="M876.91,400.46s12,1.49,15.8,6.49,13.81,5.69,13.81,5.69,11.43,3.81,11.19,4.76,3.33,2.39,10.48,4.29,19,8.81,19,10.48S966,452.4,966,454.31s5.72,9,5,21.66-1.43,28.57,1.43,31.19,0,12.86,0,12.86a7,7,0,0,0-.15,7.62c2.38,4.29-.47,22.15-.47,22.15l.23,18.57s-2.62,11.66.48,12.14-.48,5.71-.48,5.71-2.62,9.53.72,13.81S977,622.64,977,622.64l51,74s.72,13.57-15.47,13.33-16,3.1-15.48,6.19-4.52,6.43-4.52,6.43-6.43,3.33-2.62,7.38,14.76,13.33-3.33,19.52a43.28,43.28,0,0,1-5.24-9.52,106.42,106.42,0,0,1-3.81-12.85s-1.67-18.1-5-20.48-2.86-13.81-2.86-13.81,4.76-9.28-1.9-13.09-103.43-57.33-103.43-57.33L862,551.22s-1.67-52.61,8.33-70.23c0,0-1.19-7.62.48-11.9s-.24-18.1-.24-18.1Z" transform="translate(0)"/><path class="cls-7" d="M814.51,429s-23.93-4.93-30.36-1.6-19,6-21,7.86-6.67.48-10.95,11.67S747.43,469.56,742,474.8s-8.33,8.81-8.57,12.62.71,4.76-1.43,6-5.24,6.19-4.29,8.1,49.61,43.75,49.61,43.75,2.39,16,4.53,20-2.38,59.76-7.14,63.57,32.14,3.46,32.14,3.46,1.66-36.55,3.09-38.46-1-41-1-41-.24-33.33,2.86-42.14,2.75-38.06,2.75-38.06,2.74-17.57,6.07-21.67S814.51,429,814.51,429Z" transform="translate(0)"/><path class="cls-4" d="M813.8,428.31s-23.94-4.93-30.37-1.6-19,6-20.95,7.86-6.66.47-11,11.66-4.76,22.62-10.24,27.86-8.33,8.81-8.57,12.62.72,4.76-1.42,6-5.24,6.19-4.29,8.09,49.52,43.81,49.52,43.81,2.38,16,4.52,20-2.38,59.75-7.14,63.56S806,631.58,806,631.58s1.67-36.55,3.1-38.45-1-41-1-41S807.87,518.8,811,510s2.75-38.1,2.75-38.1,2.74-17.57,6.06-21.66S813.8,428.31,813.8,428.31Z" transform="translate(0)"/><path class="cls-7" d="M811.28,408.14A48.11,48.11,0,0,1,814,424.22a54.62,54.62,0,0,0,62.65-24.76,134.29,134.29,0,0,1-2.32-17.75S801.05,377.91,811.28,408.14Z" transform="translate(0)"/><path class="cls-17" d="M775.1,370.52a54.52,54.52,0,1,0,1.18-11.33A54.52,54.52,0,0,0,775.1,370.52Z" transform="translate(0)"/><path class="cls-4" d="M740.1,496.7,727,500.75s1.19,4.76-2.62,7.14-3.33,7.15-3.33,7.15-1.43,5.23-4.76,6.42-5.48,9-5.48,9l-11,12.62s-4,3.33-3.33,5-4.29,2.14-4.29,2.14l2.62,42.42,22.62,4.29,14-1.43,11.43-4.29,10-6,4.56-11.57,20-30.47Z" transform="translate(0)"/><path class="cls-17" d="M695.58,553.64s-29-41.91-50.71-19.29,8.81,59.28,16,58.09S702,589.35,702,589.35Z" transform="translate(0)"/><rect class="cls-18" x="641.62" y="527.57" width="61.42" height="69.8" rx="12.62" transform="translate(-203.64 595.12) rotate(-42.05)"/><rect class="cls-7" x="641.62" y="527.57" width="61.42" height="69.8" rx="12.62" transform="translate(-203.64 595.12) rotate(-42.05)"/><rect class="cls-18" x="642.44" y="524.12" width="61.42" height="69.8" rx="12.62" transform="translate(-201.12 594.78) rotate(-42.05)"/><circle class="cls-3" cx="672.39" cy="560.74" r="13.57"/><circle class="cls-7" cx="672.39" cy="560.74" r="13.57"/><circle class="cls-4" cx="673.15" cy="559.02" r="13.57"/><path class="cls-17" d="M676.78,562.41c-.24,31.43,64.76,38.09,64.76,38.09l16.6,2.64,7.44,1.18,3.1-30.68s-3.41-.51-7.67-1.5c-6.29-1.47-14.44-4-16.15-7.55C742,558.64,677,531,676.78,562.41Z" transform="translate(0)"/><path class="cls-7" d="M776.28,359.19a6.48,6.48,0,0,1,4,1.78c1.84,1.95,1.94,5.41,4.33,6.61a4.93,4.93,0,0,0,2.84.33c6.33-.9,10-8,16.07-10,3.46-1.12,7.27-.39,10.65.91a8,8,0,0,1,3.53,2.27c2,2.63.61,6.5,1.55,9.69,1.31,4.42,6.59,6.18,11.16,6.76s9.72.9,12.77,4.35c2.16,2.45,2.71,6,2.27,9.21a7.28,7.28,0,0,0,0,3.41c1.26,3.57,7.44,3,9,.22,1.18-2.05.82-3.75,3.6-4.32,1.88-.39,4.09.4,5.83,1A42.71,42.71,0,0,0,879,393.73a54.53,54.53,0,1,0-98.86-46.06A55.18,55.18,0,0,0,776.28,359.19Z" transform="translate(0)"/><path class="cls-19" d="M845.42,393.07a7.28,7.28,0,0,1,0-3.41c.43-3.23-.11-6.77-2.27-9.21-3-3.45-8.2-3.78-12.77-4.35s-9.85-2.33-11.16-6.75c-.94-3.19.48-7.07-1.55-9.7a7.82,7.82,0,0,0-3.52-2.26c-3.39-1.31-7.2-2-10.66-.92-6.07,2-9.74,9.12-16.07,10a4.93,4.93,0,0,1-2.84-.33c-2.39-1.2-2.49-4.66-4.33-6.6-2.89-3.06-8.38-1.09-11.92-3.36-2.31-1.49-3.2-4.38-3.84-7.05-1.26-5.18-2.27-10.61-1.06-15.79,2.07-8.86,10-14.93,15-22.49,4.71-7.05,7.35-16,14.43-20.64S809,286.6,817,289c3.74,1.11,7.44,2.49,11.31,3,6.44.79,12.9-1,19.38-1.18a41.62,41.62,0,0,1,25.59,7.77,14.17,14.17,0,0,1,4.18,4.23c1.29,2.28,1.46,5,1.85,7.58a38.77,38.77,0,0,0,5,13.93c2,3.35,4.51,6.39,6.32,9.85s2.87,7.55,1.71,11.27c-.61,2-1.82,3.73-2.27,5.74-1.06,4.65,2,9.09,4.09,13.38A25.17,25.17,0,0,1,897,377.23a16,16,0,0,1-5.7,11.41c-3.37,2.64-7.8,3.52-12.07,3.66A42.78,42.78,0,0,1,863.8,390c-1.75-.6-4-1.39-5.83-1-2.78.57-2.42,2.27-3.6,4.32C852.85,396.11,846.68,396.64,845.42,393.07Z" transform="translate(0)"/><path class="cls-7" d="M816.05,700.5l30.71-24,48.34-47.62s-6.5-.32-16-.72c-1.73,1.76-3.27,4-3.37,6.5-.24,5.82-13.07.41-19.73,3.74s-39.28,45.07-45,44.8-10.23-2.9-12.62,1.15c0,.09-.11.18-.17.27a6.72,6.72,0,0,1-3.63,2.15Z" transform="translate(0)"/><path class="cls-14" d="M754.15,698.83l15.43,49.26,2.42,7.74,7.35-2,16.2-4.45,72.16-19.82a62.87,62.87,0,0,0,26-6.93c13.75-7.48,29.26-11.24,44.84-9.78,9.54.89,20.15-3.22,29-19.48,0,0,20-59-30.48-76s-52.88,9-52.88,9-.26.14-.68.42c-2,1.25-7.45,5.18-7.65,10-.24,5.82-13.07.4-19.73,3.73s-39.28,45.08-45,44.81-10.23-2.9-12.62,1.15c0,.09-.11.17-.17.26-1.76,2.43-7.06,3-10.57,3.09-1.91.06-3.3,0-3.3,0L784,690l-3.74,1Z" transform="translate(0)"/><path class="cls-7" d="M758.14,603.14l7.44,1.18,3.1-30.68s-3.41-.51-7.67-1.5C762.14,576.39,759.58,593,758.14,603.14Z" transform="translate(0)"/><path class="cls-7" d="M952.82,459.64s22.14-6.43,16.66,56.43-46.42,102.57-46.42,102.57S875.92,639.35,854.73,636a363.19,363.19,0,0,0-36.66-4,53.76,53.76,0,0,0-21.43-5.71c-11.91-.48-36.9-7.86-37.38-10.24s6.19-37.38,3.33-40c0,0,33.33,1.37,36.67,3.78s8.09.68,11.66,0,14.53-10.21,36.19-1.87c0,0,7.38.71,10.24-1.19s7.44-.48,7.44-.48,4.49-1.67,5.18-2.67,6.42,0,6.42,0a2.54,2.54,0,0,0,3.4-1.17,2.3,2.3,0,0,0,.18-.5,15.55,15.55,0,0,1,3.33-5.23s6.43-36.19,18.57-49.76c0,0,3.57-3.1,2.62-6.91S924.28,452,952.82,459.64Z" transform="translate(0)"/><path class="cls-4" d="M952.28,454.8s22.14-6.43,16.67,56.43-46.48,102.61-46.48,102.61-47.14,20.71-68.33,17.38-36.66-4.05-36.66-4.05a53.76,53.76,0,0,0-21.43-5.71c-11.9-.48-36.9-7.86-37.38-10.24s6.19-37.38,3.34-40c0,0,33.33,1.37,36.66,3.78s8.1.68,11.67,0,14.52-10.2,36.19-1.87c0,0,7.38.71,10.23-1.19s7.45-.48,7.45-.48,4.46-1.67,5.17-2.62,6.43,0,6.43,0a2.53,2.53,0,0,0,3.39-1.16,3,3,0,0,0,.18-.5,15.6,15.6,0,0,1,3.33-5.24s6.43-36.19,18.57-49.76c0,0,3.57-3.1,2.62-6.9S923.66,447.18,952.28,454.8Z" transform="translate(0)"/><path class="cls-7" d="M780.28,691l31.44,38c.12-.11.2-.19.2-.22.24-.72,3.33-8.81,2.62-9.29s-6.19-12.38-17.14-17.38c-6.69-3-11.07-8.49-13.46-12.25Z" transform="translate(0)"/><path class="cls-7" d="M780.71,756.85l3.44,2s8-6.4,15.91-12.84,15.63-12.75,15.76-13.11c.23-.71,3.32-8.81,2.61-9.28-.37-.25-2-3.55-5-7.37-21.32-6-7.75,8.83-5.94,9.51,0,0-26-6-27.38,22.31A33.18,33.18,0,0,0,780.71,756.85Z" transform="translate(0)"/><path class="cls-16" d="M807,768.83l4.53,2.62,46,1.19s9.86,6,16.26,7.82a13.06,13.06,0,0,0,2.31.51,105.14,105.14,0,0,0,12.8.24c3.52-.09,6.25-.24,6.25-.24s-2.18-58-3.82-64c-.78-2.92-4.63-2.28-8.43-.82a55.27,55.27,0,0,0-8.23,4.17s-19.52,1.89-22.62,3.57-11.9-1-17.38,0-15.23-6.45-15.23-6.45c-26.67-8.8-11.67,7.62-9.77,8.34,0,0-25.94-6-27.37,22.31S807,768.83,807,768.83Z" transform="translate(0)"/><path class="cls-20" d="M873.43,746.45c.5,12,9.85,26.89,15.42,34.76,3.52-.09,6.25-.24,6.25-.24s-2.18-58-3.82-64c-.78-2.92-4.63-2.28-8.43-.82C878.28,724.75,873,736.78,873.43,746.45Z" transform="translate(0)"/><path class="cls-7" d="M873.43,746.45c.5,12,9.85,26.89,15.42,34.76,3.52-.09,6.25-.24,6.25-.24s-2.18-58-3.82-64c-.78-2.92-4.63-2.28-8.43-.82C878.28,724.75,873,736.78,873.43,746.45Z" transform="translate(0)"/><path class="cls-15" d="M865.57,748c3.16,11.58,3.13,24.57,8.17,32.42a13.06,13.06,0,0,0,2.31.51,105.14,105.14,0,0,0,12.8.24c3.52-.09,6.25-.24,6.25-.24s-2.18-58-3.82-64c-.78-2.92-4.63-2.28-8.43-.82a55.27,55.27,0,0,0-8.23,4.17S861.53,733.22,865.57,748Z" transform="translate(0)"/><path class="cls-7" d="M707.05,630.58s22.82,7.41,42.16,33.73Z" transform="translate(0)"/><g class="cls-21"><path d="M892.51,344.9a4.1,4.1,0,0,1-.14.5,16.29,16.29,0,0,1-.79,2A14.71,14.71,0,0,1,892.51,344.9Z" transform="translate(0)"/><path d="M763.39,333.35a21.7,21.7,0,0,1,1.77-4.81c-.12.41-.25.82-.35,1.24-1.21,5.18-.2,10.61,1.06,15.79.65,2.67,1.53,5.56,3.84,7.05,3.55,2.27,9,.29,11.92,3.35,1.84,1.95,1.94,5.41,4.34,6.61a4.93,4.93,0,0,0,2.84.33c6.32-.9,10-8,16.07-10,3.46-1.12,7.26-.39,10.65.92a7.82,7.82,0,0,1,3.52,2.26c2,2.63.61,6.51,1.55,9.69,1.31,4.42,6.59,6.18,11.16,6.75s9.72.9,12.77,4.36c2.16,2.44,2.71,6,2.27,9.21a7.55,7.55,0,0,0,0,3.41c1.26,3.57,7.44,3,9,.22,1.18-2.05.83-3.75,3.61-4.32,1.87-.39,4.08.4,5.82,1a42.78,42.78,0,0,0,15.38,2.31c4.27-.15,8.71-1,12.07-3.66a13.87,13.87,0,0,0,3.7-4.5,15.11,15.11,0,0,1-5.1,8.08c-3.36,2.64-7.79,3.52-12.07,3.66A42.72,42.72,0,0,1,863.84,390c-1.75-.6-4-1.39-5.83-1-2.78.57-2.43,2.27-3.6,4.32-1.62,2.82-7.79,3.35-9.06-.22a7.55,7.55,0,0,1,0-3.41c.44-3.23-.1-6.77-2.26-9.21-3.06-3.45-8.21-3.78-12.78-4.35s-9.85-2.33-11.15-6.75c-.95-3.19.48-7.07-1.55-9.7a7.85,7.85,0,0,0-3.53-2.26c-3.39-1.31-7.19-2-10.65-.92-6.08,2-9.75,9.12-16.07,10a4.93,4.93,0,0,1-2.84-.33c-2.4-1.2-2.5-4.66-4.34-6.6-2.89-3.06-8.37-1.09-11.91-3.36-2.32-1.49-3.2-4.38-3.85-7.05C763.18,344,762.17,338.53,763.39,333.35Z" transform="translate(0)"/></g><path class="cls-7" d="M896.2,523.9c-4.36,5.89-9.34,11.34-13.2,17.57s-6.59,13.5-5.78,20.78c4-4.1,5.82-9.76,8.34-14.9,4.26-8.7,10.64-16.08,16-24.08,1-1.53,7.61-10.35,4.28-10.77C903.1,512.15,897.69,521.89,896.2,523.9Z" transform="translate(0)"/></svg>